<?xml version="1.0" standalone="no"?>
<!DOCTYPE svg PUBLIC "-//W3C//DTD SVG 1.1//EN" "http://www.w3.org/Graphics/SVG/1.1/DTD/svg11.dtd">
<svg xmlns="http://www.w3.org/2000/svg">
<defs >
<font id="PathwayExtreme" horiz-adv-x="515" ><font-face
    font-family="Pathway Extreme 8pt Thin 12pt Light"
    units-per-em="1000"
    panose-1="0 0 0 0 0 0 0 0 0 0"
    ascent="1070"
    descent="-286"
    alphabetic="0" />
<glyph unicode=" " horiz-adv-x="255" />
<glyph unicode="!" horiz-adv-x="260" d="M172 700L162 201H97L87 700H172ZM162 122V0H97V122H162Z" />
<glyph unicode="&quot;" horiz-adv-x="328" d="M120 740L113 471H51L44 740H120ZM284 740L277 471H215L208 740H284Z" />
<glyph unicode="#" horiz-adv-x="730" d="M301 715L177 -15H111L235 715H301ZM627 715L503 -15H437L561 715H627ZM687 478L678 429H77L86 478H687ZM652 271L644 222H44L51 271H652Z" />
<glyph unicode="$" horiz-adv-x="599" d="M272 13H325V-125H272V13ZM272 825H325V686H272V825ZM303 -7Q182 -7 120 44T47 204L125 208Q134 130 178 92T304 54Q383 54 427 87T472 180Q472 224 450 250T392 290T312 315T225 337T145 371T86 430T64 528Q64 613 126
660T302 707Q419 707 482 660T552 519L474 513Q468 581 426 613T301 646Q226 646 184 615T141 528Q141 483 163 457T221 415T302 390T389 367T468 334T527 276T550 180Q550 94 484 44T303 -7Z" />
<glyph unicode="%" horiz-adv-x="779" d="M172 340Q105 340 68 374T31 470V570Q31 632 68 666T172 700Q237 700 273 666T309 570V470Q309 408 273 374T172 340ZM172 394Q241 394 241 470V570Q241 646 172 646Q135 646 118 628T100 570V470Q100 431 117 413T172
394ZM534 707H568L247 -7H211L534 707ZM610 -5Q543 -5 506 29T469 125V225Q469 287 506 321T610 355Q675 355 711 321T747 225V125Q747 63 711 29T610 -5ZM610 49Q679 49 679 125V225Q679 301 610 301Q573 301 556 283T538 225V125Q538 86 555 68T610 49Z" />
<glyph unicode="&amp;" horiz-adv-x="711" d="M336 -7Q208 -7 140 41T72 182V199Q72 265 113 311T232 376V360Q161 377 124 417T87 520V535Q87 616 153 661T336 707Q441 707 506 656T590 507L517 500Q503 570 457 608T335 646Q251 646 206 617T161 532V517Q161
455 206 425T345 394H702V338H345Q248 338 198 303T147 200V184Q147 118 193 86T336 54Q395 54 437 73T503 130T526 219H582Q582 150 553 99T468 21T336 -7ZM600 366V-110H526V366H600Z" />
<glyph unicode="&apos;" horiz-adv-x="164" d="M120 740L113 471H51L44 740H120Z" />
<glyph unicode="(" horiz-adv-x="337" d="M328 -105Q252 -105 200 -82T117 -7T72 133T58 350Q58 479 71 566T116 706T199 782T328 805V743Q271 743 234 724T174 660T142 540T133 350Q133 236 142 160T173 40T233 -23T328 -43V-105Z" />
<glyph unicode=")" horiz-adv-x="337" d="M9 805Q85 805 137 782T220 707T265 567T279 350Q279 221 266 134T221 -6T138 -82T9 -105V-43Q66 -43 103 -24T163 40T194 160T204 350Q204 464 195 540T163 660T104 723T9 743V805Z" />
<glyph unicode="*" horiz-adv-x="559" d="M268 582L434 713L472 656L291 548L125 417L87 474L268 582ZM268 548L87 656L125 713L291 582L472 474L434 417L268 548ZM258 565L245 776H314L301 565L314 354H245L258 565Z" />
<glyph unicode="+" horiz-adv-x="588" d="M77 379H511V321H77V379ZM265 567H323V133H265V567Z" />
<glyph unicode="," horiz-adv-x="153" d="M113 108V11L77 -109L44 -102L61 0H40V108H113Z" />
<glyph unicode="-" horiz-adv-x="356" d="M312 324V286H44V324H312Z" />
<glyph unicode="." horiz-adv-x="171" d="M122 108V0H49V108H122Z" />
<glyph unicode="/" horiz-adv-x="431" d="M344 752L150 -52H87L281 752H344Z" />
<glyph unicode="0" horiz-adv-x="704" d="M352 -7Q262 -7 199 24T104 119T72 272V428Q72 519 104 581T199 675T352 707Q443 707 505 676T600 582T632 428V272Q632 182 600 119T506 25T352 -7ZM352 55Q455 55 506 109T557 273V427Q557 537 506 591T352 645Q250
645 199 591T147 427V273Q147 163 198 109T352 55Z" />
<glyph unicode="1" horiz-adv-x="343" d="M238 0H163V673L194 634L24 610L18 664L199 704H238V0Z" />
<glyph unicode="2" horiz-adv-x="582" d="M40 45L325 311Q371 355 399 384T442 434T462 475T467 518V533Q467 587 422 616T294 646Q221 646 174 609T113 500L40 507Q59 604 124 655T293 707Q410 707 476 661T542 534V519Q542 480 530 447T488 378T399 287L110
14L88 62H543V0H40V45Z" />
<glyph unicode="3" horiz-adv-x="658" d="M326 -7Q212 -7 147 43T62 193L135 201Q150 126 196 90T326 54Q423 54 469 86T515 184V200Q515 268 465 303T317 338H207V394H317Q411 394 456 424T501 517V532Q501 587 456 616T326 646Q252 646 205 608T145 500L72 507Q91
604 156 655T326 707Q443 707 509 662T575 535V520Q575 458 538 418T430 360V376Q507 357 548 311T589 199V182Q589 90 522 42T326 -7Z" />
<glyph unicode="4" horiz-adv-x="609" d="M48 222L222 700H296L111 188L72 233H587V171H48V222ZM433 472L455 533H508V0H433V472Z" />
<glyph unicode="5" horiz-adv-x="629" d="M318 -7Q205 -7 140 43T54 192L127 200Q143 126 189 90T318 54Q383 54 425 68T487 111T507 184V210Q507 278 457 313T309 348H76L124 405H309Q362 405 405 397T482 372T537 331T570 277T582 210V184Q582 91 515 42T318
-7ZM101 700H551L542 637H133L170 685L148 375L76 348L101 700Z" />
<glyph unicode="6" horiz-adv-x="673" d="M72 455Q72 537 104 593T196 678T338 707Q447 707 510 657T592 508L519 500Q504 574 460 610T338 646Q247 646 197 600T147 457V226H72V455ZM340 -7Q257 -7 197 19T104 98T72 225L102 237Q102 329 166 378T345 428Q430
428 488 404T577 333T607 217V204Q607 135 577 88T487 17T340 -7ZM340 54Q440 54 486 91T533 205V218Q533 296 487 334T340 372Q246 372 197 339T147 236V223Q147 137 196 96T340 54Z" />
<glyph unicode="7" horiz-adv-x="498" d="M410 687L439 638H26V700H472V655L200 0H124L410 687Z" />
<glyph unicode="8" horiz-adv-x="686" d="M344 -7Q210 -7 140 41T69 182V199Q69 259 101 301T195 366T344 389Q430 389 491 367T585 302T618 199V182Q618 90 549 42T344 -7ZM344 55Q446 55 493 87T540 185V201Q540 268 492 303T344 339Q246 339 196 304T146 201V185Q146
119 194 87T344 55ZM344 346Q260 346 202 366T113 425T83 520V535Q83 616 152 661T344 707Q466 707 534 662T603 535V520Q603 463 574 425T486 366T344 346ZM344 395Q439 395 483 425T527 517V532Q527 586 481 615T344 645Q254 645 207 615T159 532V517Q159 456
203 426T344 395Z" />
<glyph unicode="9" horiz-adv-x="673" d="M601 245Q601 164 569 108T478 22T335 -7Q226 -7 164 43T81 192L154 200Q169 126 213 90T335 54Q426 54 476 100T526 243V474H601V245ZM333 707Q417 707 477 681T569 603T601 475L571 463Q571 371 507 322T328 272Q243
272 185 296T96 367T66 483V496Q66 565 96 612T186 683T333 707ZM333 646Q233 646 187 609T140 495V482Q140 404 187 366T333 328Q427 328 476 361T526 464V477Q526 563 477 604T333 646Z" />
<glyph unicode=":" horiz-adv-x="171" d="M122 108V0H49V108H122ZM122 500V392H49V500H122Z" />
<glyph unicode=";" horiz-adv-x="162" d="M113 108V11L77 -109L44 -102L61 0H40V108H113ZM122 500V392H49V500H122Z" />
<glyph unicode="&lt;" horiz-adv-x="588" d="M511 545V483L158 343V357L511 217V155L77 331V369L511 545Z" />
<glyph unicode="=" horiz-adv-x="588" d="M77 481H511V423H77V481ZM77 533H511V475H77V533Z" />
<glyph unicode="&gt;" horiz-adv-x="588" d="M77 155V217L431 357V343L77 483V545L511 369V331L77 155Z" />
<glyph unicode="?" horiz-adv-x="551" d="M515 472Q515 436 504 406T471 351T416 311T339 285T242 276L287 306V172H214V333H242Q339 333 389 368T440 472V516Q440 560 423 589T368 632T272 646Q189 646 143 610T81 500L8 508Q28 608 93 657T272 707Q391 707 453
658T515 516V472ZM287 103V0H214V103H287Z" />
<glyph unicode="@" horiz-adv-x="913" d="M416 -58Q318 -58 254 -33T153 36T102 141T87 271V399Q87 469 103 529T158 633T265 703T437 728Q538 728 607 710T719 659T785 586T817 496T826 399V130H668V179H759V399Q759 457 745 506T695 593T597 650T437 671Q358
671 304 653T217 599T169 513T154 399V271Q154 210 167 160T210 74T291 19T416 -1Q484 -1 542 12T651 49L668 -2Q618 -28 554 -43T416 -58ZM441 119Q343 119 294 166T244 305V367Q244 461 292 508T441 555Q534 555 589 502T644 357V317Q644 227 590 173T441 119ZM448
172Q521 172 564 212T607 321V352Q607 421 564 461T448 502Q381 502 348 469T315 365V307Q315 241 348 207T448 172ZM607 286V388L623 540H668V130H624L607 286Z" />
<glyph unicode="A" horiz-adv-x="622" d="M255 700H367L614 0H537L313 643H309L86 0H9L255 700ZM135 246H487V187H135V246Z" />
<glyph unicode="B" horiz-adv-x="602" d="M87 700H328Q398 700 444 681T514 625T538 529V521Q538 451 496 407T382 357L381 364Q469 360 511 320T554 198V186Q554 89 504 45T347 0H87V700ZM331 58Q384 58 417 71T464 113T479 189V201Q479 266 446 298T345 330H162V58H331ZM340
386Q378 386 405 402T448 447T464 516V525Q464 586 428 614T313 642H162V386H340Z" />
<glyph unicode="C" horiz-adv-x="638" d="M329 -7Q246 -7 189 24T102 117T72 270V435Q72 523 102 584T189 676T330 707Q439 707 501 656T582 504L508 496Q495 572 452 608T332 645Q240 645 194 593T147 435V271Q147 161 192 108T331 55Q409 55 454 95T512 218L583
211Q568 104 505 49T329 -7Z" />
<glyph unicode="D" horiz-adv-x="660" d="M87 700H324Q461 700 524 644T587 463V237Q587 113 524 57T324 0H87V700ZM146 58H305Q418 58 466 99T514 236V464Q514 560 466 601T305 642H146L162 687V12L146 58Z" />
<glyph unicode="E" horiz-adv-x="545" d="M145 62H497V0H87V700H493V638H145L162 687V349L145 378H473V320H145L162 349V13L145 62Z" />
<glyph unicode="F" horiz-adv-x="471" d="M145 638L162 682V340L145 374H428V316H145L162 349V0H87V700H444V638H145Z" />
<glyph unicode="G" horiz-adv-x="643" d="M316 -7Q237 -7 183 21T100 104T72 240V465Q72 543 101 597T187 679T324 707Q392 707 441 687T520 626T560 526L489 518Q477 583 436 614T323 645Q234 645 191 600T147 464V240Q147 145 189 100T320 54Q405 54 449 99T495
229L542 209Q542 143 515 95T436 20T316 -7ZM495 184V344L518 305H323V362H568V0H530L495 184Z" />
<glyph unicode="H" horiz-adv-x="718" d="M87 700H162V346L145 378H571L556 346V700H630V0H556V355L571 320H145L162 355V0H87V700Z" />
<glyph unicode="I" horiz-adv-x="249" d="M162 700V0H87V700H162Z" />
<glyph unicode="J" horiz-adv-x="504" d="M211 -7Q147 -7 103 18T36 93T9 216L79 222Q81 138 114 97T211 55Q281 55 313 91T345 207V700H420V209Q420 138 397 90T327 17T211 -7Z" />
<glyph unicode="K" horiz-adv-x="589" d="M106 229L479 700H569L124 140L106 229ZM87 700H162V0H87V700ZM262 374L316 422L575 0H493L262 374Z" />
<glyph unicode="L" horiz-adv-x="458" d="M145 62H449V0H87V700H162V13L145 62Z" />
<glyph unicode="M" horiz-adv-x="827" d="M87 700H204L412 160H415L623 700H740V0H665V627H661L451 80H376L166 627H162V0H87V700Z" />
<glyph unicode="N" horiz-adv-x="704" d="M617 700V0H523L166 591H162V0H87V700H181L538 109H542V700H617Z" />
<glyph unicode="O" horiz-adv-x="706" d="M353 -7Q263 -7 201 24T105 119T72 272V428Q72 519 105 581T200 675T353 707Q444 707 506 676T601 582T634 428V272Q634 182 602 119T507 25T353 -7ZM353 55Q457 55 508 112T559 285V415Q559 531 508 588T353 645Q250
645 199 588T147 415V285Q147 169 198 112T353 55Z" />
<glyph unicode="P" horiz-adv-x="554" d="M87 700H309Q418 700 473 648T528 492V450Q528 351 473 300T309 248H158V307H290Q376 307 415 342T454 452V490Q454 570 415 605T290 641H145L162 662V0H87V700Z" />
<glyph unicode="Q" horiz-adv-x="705" d="M272 0L302 39L655 -10L649 -68L272 0ZM353 -7Q263 -7 201 24T105 119T72 272V428Q72 519 105 581T200 675T353 707Q444 707 506 676T601 582T634 428V272Q634 182 602 119T507 25T353 -7ZM353 55Q457 55 508 112T559
285V415Q559 531 508 588T353 645Q250 645 199 588T147 415V285Q147 169 198 112T353 55Z" />
<glyph unicode="R" horiz-adv-x="587" d="M87 700H324Q429 700 480 650T532 498V460Q532 362 480 313T324 263H158V322H300Q383 322 422 356T461 462V496Q461 572 423 606T300 641H145L162 666V0H87V700ZM344 283H419L543 0H466L344 283Z" />
<glyph unicode="S" horiz-adv-x="599" d="M303 -7Q182 -7 120 44T47 204L125 208Q134 130 178 92T304 54Q383 54 427 87T472 180Q472 224 450 250T392 290T312 315T225 337T145 371T86 430T64 528Q64 613 126 660T302 707Q419 707 482 660T552 519L474 513Q468
581 426 613T301 646Q226 646 184 615T141 528Q141 483 163 457T221 415T302 390T389 367T468 334T527 276T550 180Q550 94 484 44T303 -7Z" />
<glyph unicode="T" horiz-adv-x="482" d="M474 700V638H242L279 675V0H204V675L239 638H9V700H474Z" />
<glyph unicode="U" horiz-adv-x="663" d="M333 -7Q207 -7 145 51T83 233V700H158V232Q158 138 199 97T333 55Q505 55 505 232V700H580V233Q580 174 563 130T514 55T437 9T333 -7Z" />
<glyph unicode="V" horiz-adv-x="579" d="M9 700H85L288 56H292L494 700H570L347 -1H233L9 700Z" />
<glyph unicode="W" horiz-adv-x="847" d="M9 700H85L217 68H222L376 700H471L626 68H631L762 700H838L688 -1H573L425 603H423L275 -1H160L9 700Z" />
<glyph unicode="X" horiz-adv-x="559" d="M18 700H102L550 0H466L18 700ZM255 380L317 352L87 0H9L255 380ZM246 358L471 700H550L306 331L246 358Z" />
<glyph unicode="Y" horiz-adv-x="534" d="M9 700H89L265 296H269L445 700H525L304 223H230L9 700ZM230 266H304V0H230V266Z" />
<glyph unicode="Z" horiz-adv-x="518" d="M26 45L429 687L459 638H46V700H493V655L89 13L57 62H493V0H26V45Z" />
<glyph unicode="[" horiz-adv-x="354" d="M331 800V738H162V-38H331V-100H87V800H331Z" />
<glyph unicode="\" horiz-adv-x="311" d="M-33 752H29L223 -52H161L-33 752Z" />
<glyph unicode="]" horiz-adv-x="354" d="M22 -100V-38H192V738H22V800H266V-100H22Z" />
<glyph unicode="^" horiz-adv-x="588" d="M275 700H312L535 343H470L281 649H307L118 343H53L275 700Z" />
<glyph unicode="_" horiz-adv-x="454" d="M410 -26V-55H44V-26H410Z" />
<glyph unicode="`" horiz-adv-x="231" d="M231 620L205 586L0 727L49 789L231 620Z" />
<glyph unicode="a" horiz-adv-x="569" d="M416 176V362Q416 426 381 455T269 485Q220 485 173 471T84 432L73 491Q99 508 134 520T209 540T285 547Q388 547 439 501T491 362V0H442L416 176ZM241 -7Q155 -7 107 32T58 143V174Q58 245 107 285T245 325Q339 325 394
287T449 178V146Q449 74 394 34T241 -7ZM261 45Q332 45 373 75T415 156V171Q415 220 376 246T266 273Q201 273 166 249T131 167V153Q131 100 165 73T261 45Z" />
<glyph unicode="b" horiz-adv-x="658" d="M372 -7Q298 -7 243 24T157 112T126 246V299Q126 376 156 431T242 517T372 547Q476 547 533 488T591 321V219Q591 111 534 52T372 -7ZM87 740H162V171L132 0H87V740ZM365 50Q437 50 476 96T516 226V311Q516 396 477 442T365
489Q270 489 216 436T162 288V255Q162 160 216 105T365 50Z" />
<glyph unicode="c" horiz-adv-x="608" d="M311 -7Q236 -7 181 20T97 98T67 219V321Q67 390 97 441T182 519T311 547Q417 547 483 497T558 358L484 353Q472 419 430 452T313 486Q233 486 188 442T142 321V219Q142 142 187 98T313 54Q385 54 428 88T484 187L558
182Q549 95 483 44T311 -7Z" />
<glyph unicode="d" horiz-adv-x="658" d="M286 -7Q181 -7 124 52T67 219V321Q67 429 124 488T287 547Q361 547 416 517T501 432T532 299V246Q532 169 502 112T416 24T286 -7ZM293 50Q388 50 442 105T496 255V288Q496 382 442 435T293 489Q221 489 182 443T142
311V226Q142 143 182 97T293 50ZM496 171V740H571V0H526L496 171Z" />
<glyph unicode="e" horiz-adv-x="623" d="M306 -7Q230 -7 177 19T95 95T67 218V322Q67 392 96 442T181 520T313 547Q430 547 493 485T556 309V245H128V298H495L483 277V326Q483 401 438 443T314 485Q232 485 187 443T142 322V211Q142 134 185 94T308 53Q380 53
423 81T478 163L549 159Q532 79 469 36T306 -7Z" />
<glyph unicode="f" horiz-adv-x="317" d="M121 571Q121 661 164 708T289 755Q310 755 335 752T384 741L371 683Q354 688 337 690T303 693Q247 693 222 664T196 571V0H121V571ZM29 540H332V481H29V540Z" />
<glyph unicode="g" horiz-adv-x="556" d="M274 160Q172 160 115 206T58 335V372Q58 456 115 501T274 547Q376 547 433 502T490 372V335Q490 252 433 206T274 160ZM193 -186Q115 -186 75 -155T34 -62Q34 -2 74 30T193 62H356Q433 62 474 31T515 -62Q515 -123 474
-154T356 -186H193ZM348 -131Q440 -131 440 -62Q440 7 348 7H201Q107 7 107 -62Q107 -133 201 -131H348ZM167 38Q126 38 103 57T79 111Q79 145 102 164T168 183H274V160H205Q177 160 161 147T146 111Q146 87 160 75T203 62H274V38H167ZM274 218Q343 218 379 249T416
338V370Q416 427 380 458T274 489Q207 489 170 458T132 370V338Q132 282 169 250T274 218ZM387 517L524 560H545V489L387 476V517Z" />
<glyph unicode="h" horiz-adv-x="638" d="M486 324Q486 409 451 448T341 488Q255 488 209 429T162 260L126 193L127 258Q127 398 189 472T368 547Q466 547 513 494T560 328V0H486V324ZM87 740H162V360V0H87V740Z" />
<glyph unicode="i" horiz-adv-x="249" d="M162 540V0H87V540H162ZM167 728V611H83V728H167Z" />
<glyph unicode="j" horiz-adv-x="249" d="M-2 -186Q-23 -186 -47 -183T-96 -173L-86 -117Q-68 -122 -52 -124T-20 -127Q36 -127 61 -98T87 -5V540H162V-6Q162 -95 121 -140T-2 -186ZM168 728V611H84V728H168Z" />
<glyph unicode="k" horiz-adv-x="502" d="M102 174L403 540H493L131 102L102 174ZM87 740H162V0H87V740ZM236 284L290 326L497 0H416L236 284Z" />
<glyph unicode="l" horiz-adv-x="249" d="M162 740V0H87V740H162Z" />
<glyph unicode="m" horiz-adv-x="1024" d="M871 326Q871 408 837 448T730 488Q645 488 600 429T554 260L518 193V258Q518 398 580 472T758 547Q854 547 900 494T946 329V0H871V326ZM87 540H136L162 351V0H87V540ZM479 326Q479 408 445 448T338 488Q253 488 208
429T162 260L127 193V258Q127 398 188 472T365 547Q462 547 508 494T554 329V0H479V326Z" />
<glyph unicode="n" horiz-adv-x="638" d="M486 324Q486 409 451 448T341 488Q255 488 209 429T162 260L127 193V258Q127 398 189 472T368 547Q466 547 513 494T560 328V0H486V324ZM87 540H136L162 360V0H87V540Z" />
<glyph unicode="o" horiz-adv-x="639" d="M320 -7Q241 -7 185 20T98 98T67 219V321Q67 391 98 441T185 519T320 547Q398 547 455 520T542 442T572 321V219Q572 149 542 98T455 20T320 -7ZM320 56Q402 56 449 100T497 220V320Q497 396 450 440T320 484Q238 484
190 440T142 320V220Q142 145 190 101T320 56Z" />
<glyph unicode="p" horiz-adv-x="658" d="M372 -7Q298 -7 243 24T157 112T126 246V299Q126 376 156 431T242 517T372 547Q477 547 534 488T591 321V219Q591 111 534 52T372 -7ZM87 540H134L162 369V-180H87V540ZM365 50Q437 50 476 96T516 226V311Q516 396 477
442T365 489Q270 489 216 436T162 288V255Q162 160 216 105T365 50Z" />
<glyph unicode="q" horiz-adv-x="657" d="M286 -7Q181 -7 124 52T67 219V321Q67 429 124 488T287 547Q361 547 416 517T501 432T532 299V246Q532 169 502 112T416 24T286 -7ZM293 50Q388 50 442 105T496 255V288Q496 382 442 435T293 489Q221 489 182 443T142
311V226Q142 143 182 97T293 50ZM570 540V-180H496V369L523 540H570Z" />
<glyph unicode="r" horiz-adv-x="385" d="M87 540H136L162 343V0H87V540ZM136 300Q136 422 184 484T325 547Q341 547 357 545T390 539L386 473Q356 481 321 481Q243 481 203 430T162 277L136 300Z" />
<glyph unicode="s" horiz-adv-x="529" d="M269 -7Q165 -7 111 33T45 157L121 160Q127 105 163 79T269 52Q335 52 371 74T407 138Q407 171 388 189T337 218T269 234T194 249T125 274T75 320T55 398Q55 471 109 509T269 548Q333 548 378 531T449 479T482 394L405
390Q401 439 367 464T270 489Q203 489 168 466T132 399Q132 366 151 347T202 319T270 303T345 287T414 262T464 217T484 139Q484 67 429 30T269 -7Z" />
<glyph unicode="t" horiz-adv-x="364" d="M257 -7Q185 -7 152 28T119 140V536L141 671H194V145Q194 94 211 75T274 56Q289 56 304 58T334 64L346 7Q332 3 318 0T288 -5T257 -7ZM18 540H330V481H18V540Z" />
<glyph unicode="u" horiz-adv-x="639" d="M152 214Q152 131 185 92T289 53Q380 53 428 111T476 280L511 347V282Q511 143 452 68T280 -7Q177 -7 128 46T78 211V540H152V214ZM552 0H503L476 180V540H552V0Z" />
<glyph unicode="v" horiz-adv-x="514" d="M9 540H83L256 45H259L432 540H505L324 0H190L9 540Z" />
<glyph unicode="w" horiz-adv-x="828" d="M5 540H78L215 47H219L362 540H467L609 47H612L750 540H823L680 0H550L416 457H413L278 0H149L5 540Z" />
<glyph unicode="x" horiz-adv-x="526" d="M14 540H105L517 0H426L14 540ZM235 296L304 275L95 0H9L235 296ZM220 269L426 540H512L290 249L220 269Z" />
<glyph unicode="y" horiz-adv-x="514" d="M161 -177L235 16L227 -28L9 540H84L262 79H265L431 540H505L241 -191L161 -177Z" />
<glyph unicode="z" horiz-adv-x="507" d="M31 39L392 511L407 481H49V540H475V502L114 28L99 59H475V0H31V39Z" />
<glyph unicode="{" horiz-adv-x="367" d="M253 -104Q205 -104 172 -87T122 -36T105 48V198Q105 245 97 272T70 312T17 324V377Q50 377 69 389T97 430T105 503V654Q105 705 122 738T172 788T253 805Q281 805 311 800T362 787L348 731Q331 738 310 742T269 746Q222
746 201 722T180 649V499Q180 452 172 422T147 374T98 351Q128 345 146 328T172 281T180 203V52Q180 5 201 -19T269 -44Q289 -44 310 -40T348 -29L362 -85Q341 -93 311 -98T253 -104Z" />
<glyph unicode="|" horiz-adv-x="419" d="M244 752V-52H175V752H244Z" />
<glyph unicode="}" horiz-adv-x="367" d="M114 804Q162 804 195 787T245 737T262 652V502Q262 456 270 428T297 388T349 376V323Q316 323 297 311T270 271T262 197V46Q262 -4 245 -38T195 -88T114 -105Q85 -105 56 -100T5 -87L19 -31Q36 -38 57 -42T98 -46Q145
-46 166 -22T187 51V201Q187 248 194 278T220 326T268 349Q239 356 221 372T195 420T187 497V648Q187 695 166 719T98 744Q79 744 58 740T19 729L5 785Q27 794 56 799T114 804Z" />
<glyph unicode="~" horiz-adv-x="588" d="M172 305Q149 305 125 309T77 323V379Q100 370 124 366T172 362Q213 362 253 370T335 387T417 396Q439 396 464 393T511 379V323Q490 332 465 336T417 341Q377 341 336 332T254 314T172 305Z" />
<glyph unicode="&#xa0;" horiz-adv-x="255" />
<glyph unicode="&#xa1;" horiz-adv-x="260" d="M87 -160L97 339H162L172 -160H87ZM97 418V540H162V418H97Z" />
<glyph unicode="&#xa2;" horiz-adv-x="608" d="M339 790V638H286V790H339ZM339 102V-50H286V102H339ZM311 93Q236 93 181 120T97 198T67 319V421Q67 490 97 541T182 619T311 647Q417 647 483 597T558 458L484 453Q472 519 430 552T313 586Q233 586 188 542T142
421V319Q142 242 187 198T313 154Q385 154 428 188T484 287L558 282Q549 195 483 144T311 93Z" />
<glyph unicode="&#xa3;" horiz-adv-x="651" d="M106 436Q106 523 134 584T218 676T353 707Q455 707 514 657T592 505L520 498Q507 573 466 609T354 645Q267 645 224 594T181 436V0H106V436ZM58 36L109 50L146 59H608V0H58V36ZM44 362H444V309H44V362Z" />
<glyph unicode="&#xa5;" horiz-adv-x="534" d="M67 214H450V162H67V214ZM67 366H195V313H67V366ZM322 366H450V313H322V366ZM9 700H89L265 296H269L445 700H525L304 223H230L9 700ZM230 266H304V0H230V266Z" />
<glyph unicode="&#xa6;" horiz-adv-x="419" d="M244 752V448H175V752H244ZM244 252V-52H175V252H244Z" />
<glyph unicode="&#xa7;" horiz-adv-x="598" d="M303 -108Q182 -108 120 -57T47 104L125 108Q134 30 178 -8T304 -46Q383 -46 427 -13T472 80Q472 116 458 139T418 177T360 202T293 221L77 274L94 342L324 285Q364 275 404 262T477 228T530 172T550 80Q550 23 520
-19T434 -85T303 -108ZM285 419Q244 428 204 440T130 475T76 533T56 627Q56 713 118 760T294 808Q411 808 474 760T544 619L466 613Q460 681 418 713T293 746Q218 746 176 715T133 627Q133 590 148 566T189 527T247 501T316 482L505 436L488 372L285 419Z" />
<glyph unicode="&#xa8;" horiz-adv-x="212" d="M67 728V611H2V728H67ZM210 728V611H145V728H210Z" />
<glyph unicode="&#xa9;" horiz-adv-x="712" d="M357 315Q278 315 236 356T194 476V587Q194 663 237 704T358 745Q428 745 468 714T519 622L465 617Q457 657 432 677T359 698Q305 698 277 671T249 585V477Q249 424 274 393T358 362Q408 362 434 385T467 450L520
446Q511 382 470 349T357 315ZM356 236Q223 236 155 287T87 440V620Q87 724 155 774T356 824Q489 824 557 774T625 620V440Q625 338 557 287T356 236ZM356 274Q474 274 529 315T584 440V620Q584 705 530 745T356 786Q237 786 183 746T128 620V440Q128 356 183 315T356
274Z" />
<glyph unicode="&#xaa;" horiz-adv-x="420" d="M298 476V594Q298 629 277 650T198 671Q166 671 132 664T69 639L60 679Q79 690 105 698T159 711T213 716Q357 716 357 597V360H318L298 476ZM177 355Q118 355 84 381T50 453V472Q50 519 84 545T181 571Q247 571 285
546T323 475V454Q323 408 284 382T177 355ZM194 391Q242 391 270 410T298 461V471Q298 501 272 517T197 534Q148 534 127 517T105 468V459Q105 426 128 409T194 391Z" />
<glyph unicode="&#xab;" horiz-adv-x="420" d="M188 526L218 501L79 295V345L218 139L188 114L21 309V331L188 526ZM379 526L409 501L270 295V345L409 139L379 114L212 309V331L379 526Z" />
<glyph unicode="&#xac;" horiz-adv-x="588" d="M460 171V361H511V171H460ZM77 379H511V321H77V379Z" />
<glyph unicode="&#xae;" horiz-adv-x="712" d="M356 236Q223 236 155 287T87 440V620Q87 724 155 774T356 824Q489 824 557 774T625 620V440Q625 338 557 287T356 236ZM378 488H434L512 320H455L378 488ZM356 274Q474 274 529 315T584 440V620Q584 705 530 745T356
786Q237 786 183 746T128 620V440Q128 356 183 315T356 274ZM217 740H372Q437 740 471 710T505 619V593Q505 535 471 506T372 476H270V516H354Q400 516 425 533T451 596V618Q451 655 431 677T354 700H260L273 716V320H217V740Z" />
<glyph unicode="&#xaf;" horiz-adv-x="288" d="M288 700V637H0V700H288Z" />
<glyph unicode="&#xb0;" horiz-adv-x="469" d="M234 355Q151 355 104 394T56 503V568Q56 637 104 676T234 716Q318 716 365 677T413 568V503Q413 434 366 395T234 355ZM234 400Q290 400 322 428T355 504V567Q355 616 323 643T234 671Q179 671 147 643T114 567V504Q114
456 146 428T234 400Z" />
<glyph unicode="&#xb1;" horiz-adv-x="588" d="M77 379H511V321H77V379ZM265 567H323V133H265V567ZM77 52H511V-6H77V52Z" />
<glyph unicode="&#xb2;" horiz-adv-x="341" d="M37 468L173 581Q211 613 222 630T234 670V678Q234 703 218 717T172 731Q143 731 127 717T105 675L38 680Q46 731 80 758T171 785Q232 785 267 757T303 680V672Q303 652 296 633T274 596T239 559L99 441L100 484H302V430H38L37
468Z" />
<glyph unicode="&#xb3;" horiz-adv-x="341" d="M172 425Q104 425 68 452T32 530H100Q100 502 117 490T172 477Q240 477 240 529V534Q240 561 224 574T172 588H108V629H172Q200 629 215 642T231 678V689Q231 712 216 724T172 737Q142 737 126 725T110 688H42Q42
736 75 760T172 785Q233 785 266 761T299 690V680Q299 640 270 620T192 599V618Q246 618 277 596T309 532V528Q309 479 274 452T172 425Z" />
<glyph unicode="&#xb4;" horiz-adv-x="231" d="M231 727L26 586L0 620L182 789L231 727Z" />
<glyph unicode="&#xb5;" horiz-adv-x="638" d="M560 540V212Q560 101 513 47T368 -7Q252 -7 190 68T127 282L126 347L162 280Q162 170 208 111T341 52Q416 52 451 91T486 216V540H560ZM162 540V180V-180H87V540H162Z" />
<glyph unicode="&#xb6;" horiz-adv-x="453" d="M322 540V0H247V266H160Q94 266 60 297T26 388V414Q26 477 60 508T160 540H322Z" />
<glyph unicode="&#xb7;" horiz-adv-x="171" d="M122 404V296H49V404H122Z" />
<glyph unicode="&#xb8;" horiz-adv-x="178" d="M90 -193Q47 -193 24 -171T1 -108L46 -102Q46 -124 56 -135T86 -147Q105 -147 116 -136T127 -106Q127 -89 113 -76T70 -53L85 0H129L118 -36Q146 -48 162 -69T178 -114Q178 -149 154 -171T90 -193Z" />
<glyph unicode="&#xb9;" horiz-adv-x="341" d="M241 430H173V735L204 727L114 699L98 753L204 785H241V430Z" />
<glyph unicode="&#xba;" horiz-adv-x="469" d="M234 355Q151 355 104 394T56 503V568Q56 637 104 676T234 716Q318 716 365 677T413 568V503Q413 434 366 395T234 355ZM234 400Q290 400 322 428T355 504V567Q355 616 323 643T234 671Q179 671 147 643T114 567V504Q114
456 146 428T234 400Z" />
<glyph unicode="&#xbb;" horiz-adv-x="420" d="M232 114L201 139L341 345V295L201 501L232 526L399 331V309L232 114ZM41 114L11 139L150 345V295L11 501L41 526L208 331V309L41 114Z" />
<glyph unicode="&#xbc;" horiz-adv-x="779" d="M241 345H173V650L204 642L114 614L98 668L204 700H241V345ZM534 707H568L247 -7H211L534 707ZM468 125L556 350H624L523 93L495 133H749V79H468V125ZM648 212L670 268H716V0H648V212Z" />
<glyph unicode="&#xbd;" horiz-adv-x="779" d="M241 345H173V650L204 642L114 614L98 668L204 700H241V345ZM534 707H568L247 -7H211L534 707ZM475 38L611 151Q649 183 660 200T672 240V248Q672 273 656 287T610 301Q581 301 565 287T543 245L476 250Q484 301
518 328T609 355Q670 355 705 327T741 250V242Q741 222 734 203T712 166T677 129L537 11L538 54H740V0H476L475 38Z" />
<glyph unicode="&#xbe;" horiz-adv-x="779" d="M172 340Q104 340 68 367T32 445H100Q100 417 117 405T172 392Q240 392 240 444V449Q240 476 224 489T172 503H108V544H172Q200 544 215 557T231 593V604Q231 627 216 639T172 652Q142 652 126 640T110 603H42Q42
651 75 675T172 700Q233 700 266 676T299 605V595Q299 555 270 535T192 514V533Q246 533 277 511T309 447V443Q309 394 274 367T172 340ZM534 707H568L247 -7H211L534 707ZM468 125L556 350H624L523 93L495 133H749V79H468V125ZM648 212L670 268H716V0H648V212Z"
/>
<glyph unicode="&#xbf;" horiz-adv-x="551" d="M37 68Q37 104 48 134T81 189T136 229T212 255T310 264L264 234V368H337V207H310Q212 207 162 172T111 68V24Q111 -19 129 -48T185 -92T280 -106Q363 -106 409 -70T471 40L544 32Q524 -67 459 -117T280 -167Q161
-167 99 -118T37 24V68ZM264 437V540H337V437H264Z" />
<glyph unicode="&#xc0;" horiz-adv-x="622" d="M255 700H367L614 0H537L313 643H309L86 0H9L255 700ZM135 246H487V187H135V246ZM426 780L400 746L195 887L244 949L426 780Z" />
<glyph unicode="&#xc1;" horiz-adv-x="622" d="M255 700H367L614 0H537L313 643H309L86 0H9L255 700ZM135 246H487V187H135V246ZM426 884L221 743L195 777L377 946L426 884Z" />
<glyph unicode="&#xc2;" horiz-adv-x="622" d="M255 700H367L614 0H537L313 643H309L86 0H9L255 700ZM135 246H487V187H135V246ZM149 775L294 933H327L472 775L442 743L294 870H329L179 743L149 775Z" />
<glyph unicode="&#xc3;" horiz-adv-x="622" d="M255 700H367L614 0H537L313 643H309L86 0H9L255 700ZM135 246H487V187H135V246ZM168 820Q188 849 210 863T258 878Q281 878 299 870T334 854T369 846Q385 846 400 853T430 875L455 845Q435 816 412 801T364 786Q343
786 325 794T289 811T253 819Q237 819 222 812T192 789L168 820Z" />
<glyph unicode="&#xc4;" horiz-adv-x="622" d="M255 700H367L614 0H537L313 643H309L86 0H9L255 700ZM135 246H487V187H135V246ZM272 888V771H207V888H272ZM415 888V771H350V888H415Z" />
<glyph unicode="&#xc5;" horiz-adv-x="622" d="M255 700H367L614 0H537L313 643H309L86 0H9L255 700ZM135 246H487V187H135V246ZM311 749Q259 749 231 774T203 844V860Q203 905 231 929T311 954Q364 954 392 930T420 860V844Q420 798 392 774T311 749ZM311 793Q338
793 352 805T366 843V861Q366 885 352 897T311 910Q285 910 271 898T257 861V843Q257 818 271 806T311 793Z" />
<glyph unicode="&#xc6;" horiz-adv-x="902" d="M257 700H333L86 0H9L257 700ZM168 315L828 376V317L168 256V315ZM444 700H848V638H503L519 684V16L503 62H853V0H444V700ZM503 700V638H308L309 700H503Z" />
<glyph unicode="&#xc7;" horiz-adv-x="638" d="M329 -7Q246 -7 189 24T102 117T72 270V435Q72 523 102 584T189 676T330 707Q439 707 501 656T582 504L508 496Q495 572 452 608T332 645Q240 645 194 593T147 435V271Q147 161 192 108T331 55Q409 55 454 95T512
218L583 211Q568 104 505 49T329 -7ZM318 -194Q275 -194 252 -172T229 -109L274 -103Q274 -125 284 -136T314 -148Q333 -148 344 -137T355 -107Q355 -90 341 -77T298 -54L313 -1H357L346 -37Q374 -49 390 -70T406 -115Q406 -150 382 -172T318 -194Z" />
<glyph unicode="&#xc8;" horiz-adv-x="545" d="M145 62H497V0H87V700H493V638H145L162 687V349L145 378H473V320H145L162 349V13L145 62ZM412 780L386 746L181 887L230 949L412 780Z" />
<glyph unicode="&#xc9;" horiz-adv-x="545" d="M145 62H497V0H87V700H493V638H145L162 687V349L145 378H473V320H145L162 349V13L145 62ZM412 884L207 743L181 777L363 946L412 884Z" />
<glyph unicode="&#xca;" horiz-adv-x="545" d="M145 62H497V0H87V700H493V638H145L162 687V349L145 378H473V320H145L162 349V13L145 62ZM135 775L280 933H313L458 775L428 743L280 870H315L165 743L135 775Z" />
<glyph unicode="&#xcb;" horiz-adv-x="545" d="M145 62H497V0H87V700H493V638H145L162 687V349L145 378H473V320H145L162 349V13L145 62ZM258 888V771H193V888H258ZM401 888V771H336V888H401Z" />
<glyph unicode="&#xcc;" horiz-adv-x="249" d="M162 700V0H87V700H162ZM240 780L214 746L9 887L58 949L240 780Z" />
<glyph unicode="&#xcd;" horiz-adv-x="249" d="M162 700V0H87V700H162ZM240 884L35 743L9 777L191 946L240 884Z" />
<glyph unicode="&#xce;" horiz-adv-x="249" d="M162 700V0H87V700H162ZM-37 775L108 933H141L286 775L256 743L108 870H143L-7 743L-37 775Z" />
<glyph unicode="&#xcf;" horiz-adv-x="249" d="M162 700V0H87V700H162ZM86 888V771H21V888H86ZM229 888V771H164V888H229Z" />
<glyph unicode="&#xd0;" horiz-adv-x="646" d="M87 700H324Q461 700 524 644T587 463V237Q587 113 524 57T324 0H87V700ZM146 58H305Q418 58 466 99T514 236V464Q514 560 466 601T305 642H146L162 687V12L146 58ZM527 374V327H237V374H527Z" />
<glyph unicode="&#xd1;" horiz-adv-x="704" d="M617 700V0H523L166 591H162V0H87V700H181L538 109H542V700H617ZM209 820Q229 849 251 863T299 878Q322 878 340 870T375 854T410 846Q426 846 441 853T471 875L496 845Q476 816 453 801T405 786Q384 786 366 794T330
811T294 819Q278 819 263 812T233 789L209 820Z" />
<glyph unicode="&#xd2;" horiz-adv-x="706" d="M353 -7Q263 -7 201 24T105 119T72 272V428Q72 519 105 581T200 675T353 707Q444 707 506 676T601 582T634 428V272Q634 182 602 119T507 25T353 -7ZM353 55Q457 55 508 112T559 285V415Q559 531 508 588T353 645Q250
645 199 588T147 415V285Q147 169 198 112T353 55ZM468 780L442 746L237 887L286 949L468 780Z" />
<glyph unicode="&#xd3;" horiz-adv-x="706" d="M353 -7Q263 -7 201 24T105 119T72 272V428Q72 519 105 581T200 675T353 707Q444 707 506 676T601 582T634 428V272Q634 182 602 119T507 25T353 -7ZM353 55Q457 55 508 112T559 285V415Q559 531 508 588T353 645Q250
645 199 588T147 415V285Q147 169 198 112T353 55ZM468 884L263 743L237 777L419 946L468 884Z" />
<glyph unicode="&#xd4;" horiz-adv-x="706" d="M353 -7Q263 -7 201 24T105 119T72 272V428Q72 519 105 581T200 675T353 707Q444 707 506 676T601 582T634 428V272Q634 182 602 119T507 25T353 -7ZM353 55Q457 55 508 112T559 285V415Q559 531 508 588T353 645Q250
645 199 588T147 415V285Q147 169 198 112T353 55ZM191 775L336 933H369L514 775L484 743L336 870H371L221 743L191 775Z" />
<glyph unicode="&#xd5;" horiz-adv-x="706" d="M353 -7Q263 -7 201 24T105 119T72 272V428Q72 519 105 581T200 675T353 707Q444 707 506 676T601 582T634 428V272Q634 182 602 119T507 25T353 -7ZM353 55Q457 55 508 112T559 285V415Q559 531 508 588T353 645Q250
645 199 588T147 415V285Q147 169 198 112T353 55ZM210 820Q230 849 252 863T300 878Q323 878 341 870T376 854T411 846Q427 846 442 853T472 875L497 845Q477 816 454 801T406 786Q385 786 367 794T331 811T295 819Q279 819 264 812T234 789L210 820Z" />
<glyph unicode="&#xd6;" horiz-adv-x="706" d="M353 -7Q263 -7 201 24T105 119T72 272V428Q72 519 105 581T200 675T353 707Q444 707 506 676T601 582T634 428V272Q634 182 602 119T507 25T353 -7ZM353 55Q457 55 508 112T559 285V415Q559 531 508 588T353 645Q250
645 199 588T147 415V285Q147 169 198 112T353 55ZM314 888V771H249V888H314ZM457 888V771H392V888H457Z" />
<glyph unicode="&#xd7;" horiz-adv-x="588" d="M161 524L468 217L427 176L120 483L161 524ZM427 524L468 483L161 176L120 217L427 524Z" />
<glyph unicode="&#xd8;" horiz-adv-x="706" d="M353 -7Q263 -7 201 24T105 119T72 272V428Q72 519 105 581T200 675T353 707Q444 707 506 676T601 582T634 428V272Q634 182 602 119T507 25T353 -7ZM353 55Q457 55 508 112T559 285V415Q559 531 508 588T353 645Q250
645 199 588T147 415V285Q147 169 198 112T353 55ZM549 760L208 -60H157L499 760H549Z" />
<glyph unicode="&#xd9;" horiz-adv-x="663" d="M333 -7Q207 -7 145 51T83 233V700H158V232Q158 138 199 97T333 55Q505 55 505 232V700H580V233Q580 174 563 130T514 55T437 9T333 -7ZM448 780L422 746L217 887L266 949L448 780Z" />
<glyph unicode="&#xda;" horiz-adv-x="663" d="M333 -7Q207 -7 145 51T83 233V700H158V232Q158 138 199 97T333 55Q505 55 505 232V700H580V233Q580 174 563 130T514 55T437 9T333 -7ZM448 884L243 743L217 777L399 946L448 884Z" />
<glyph unicode="&#xdb;" horiz-adv-x="663" d="M333 -7Q207 -7 145 51T83 233V700H158V232Q158 138 199 97T333 55Q505 55 505 232V700H580V233Q580 174 563 130T514 55T437 9T333 -7ZM171 775L316 933H349L494 775L464 743L316 870H351L201 743L171 775Z" />
<glyph unicode="&#xdc;" horiz-adv-x="663" d="M333 -7Q207 -7 145 51T83 233V700H158V232Q158 138 199 97T333 55Q505 55 505 232V700H580V233Q580 174 563 130T514 55T437 9T333 -7ZM294 888V771H229V888H294ZM437 888V771H372V888H437Z" />
<glyph unicode="&#xdd;" horiz-adv-x="534" d="M9 700H89L265 296H269L445 700H525L304 223H230L9 700ZM230 266H304V0H230V266ZM382 884L177 743L151 777L333 946L382 884Z" />
<glyph unicode="&#xde;" horiz-adv-x="554" d="M87 700H162V576H309Q418 576 473 524T528 368V325Q528 226 473 175T309 124H158V183H290Q376 183 415 218T454 328V366Q454 446 415 481T290 517H145L162 538V0H87V700Z" />
<glyph unicode="&#xdf;" horiz-adv-x="664" d="M444 -6Q347 -6 297 35T236 159L308 162Q312 107 345 81T445 54Q505 54 539 75T574 140Q574 178 553 199T500 232T430 255T361 281T307 323T286 399Q286 433 300 456T336 497T378 529T414 563T429 612Q429 651 396
673T304 695Q248 695 217 679T174 630T162 543V0H87V541Q87 609 107 657T176 731T307 758Q355 758 400 745T475 701T504 617Q504 577 490 551T454 508T411 476T376 445T361 404Q361 372 381 355T434 326T503 305T572 277T625 227T646 140Q646 66 591 30T444 -6Z"
/>
<glyph unicode="&#xe0;" horiz-adv-x="569" d="M416 176V362Q416 426 381 455T269 485Q220 485 173 471T84 432L73 491Q99 508 134 520T209 540T285 547Q388 547 439 501T491 362V0H442L416 176ZM241 -7Q155 -7 107 32T58 143V174Q58 245 107 285T245 325Q339
325 394 287T449 178V146Q449 74 394 34T241 -7ZM261 45Q332 45 373 75T415 156V171Q415 220 376 246T266 273Q201 273 166 249T131 167V153Q131 100 165 73T261 45ZM397 620L371 586L166 727L215 789L397 620Z" />
<glyph unicode="&#xe1;" horiz-adv-x="569" d="M416 176V362Q416 426 381 455T269 485Q220 485 173 471T84 432L73 491Q99 508 134 520T209 540T285 547Q388 547 439 501T491 362V0H442L416 176ZM241 -7Q155 -7 107 32T58 143V174Q58 245 107 285T245 325Q339
325 394 287T449 178V146Q449 74 394 34T241 -7ZM261 45Q332 45 373 75T415 156V171Q415 220 376 246T266 273Q201 273 166 249T131 167V153Q131 100 165 73T261 45ZM397 724L192 583L166 617L348 786L397 724Z" />
<glyph unicode="&#xe2;" horiz-adv-x="569" d="M416 176V362Q416 426 381 455T269 485Q220 485 173 471T84 432L73 491Q99 508 134 520T209 540T285 547Q388 547 439 501T491 362V0H442L416 176ZM241 -7Q155 -7 107 32T58 143V174Q58 245 107 285T245 325Q339
325 394 287T449 178V146Q449 74 394 34T241 -7ZM261 45Q332 45 373 75T415 156V171Q415 220 376 246T266 273Q201 273 166 249T131 167V153Q131 100 165 73T261 45ZM120 615L265 773H298L443 615L413 583L265 710H300L150 583L120 615Z" />
<glyph unicode="&#xe3;" horiz-adv-x="569" d="M416 176V362Q416 426 381 455T269 485Q220 485 173 471T84 432L73 491Q99 508 134 520T209 540T285 547Q388 547 439 501T491 362V0H442L416 176ZM241 -7Q155 -7 107 32T58 143V174Q58 245 107 285T245 325Q339
325 394 287T449 178V146Q449 74 394 34T241 -7ZM261 45Q332 45 373 75T415 156V171Q415 220 376 246T266 273Q201 273 166 249T131 167V153Q131 100 165 73T261 45ZM138 660Q158 689 180 703T228 718Q251 718 269 710T304 694T339 686Q355 686 370 693T400 715L425
685Q405 656 382 641T334 626Q313 626 295 634T259 651T223 659Q207 659 192 652T162 629L138 660Z" />
<glyph unicode="&#xe4;" horiz-adv-x="569" d="M416 176V362Q416 426 381 455T269 485Q220 485 173 471T84 432L73 491Q99 508 134 520T209 540T285 547Q388 547 439 501T491 362V0H442L416 176ZM241 -7Q155 -7 107 32T58 143V174Q58 245 107 285T245 325Q339
325 394 287T449 178V146Q449 74 394 34T241 -7ZM261 45Q332 45 373 75T415 156V171Q415 220 376 246T266 273Q201 273 166 249T131 167V153Q131 100 165 73T261 45ZM243 728V611H178V728H243ZM386 728V611H321V728H386Z" />
<glyph unicode="&#xe5;" horiz-adv-x="569" d="M416 176V362Q416 426 381 455T269 485Q220 485 173 471T84 432L73 491Q99 508 134 520T209 540T285 547Q388 547 439 501T491 362V0H442L416 176ZM241 -7Q155 -7 107 32T58 143V174Q58 245 107 285T245 325Q339
325 394 287T449 178V146Q449 74 394 34T241 -7ZM261 45Q332 45 373 75T415 156V171Q415 220 376 246T266 273Q201 273 166 249T131 167V153Q131 100 165 73T261 45ZM281 589Q229 589 201 614T173 684V700Q173 745 201 769T281 794Q334 794 362 770T390 700V684Q390
638 362 614T281 589ZM281 633Q308 633 322 645T336 683V701Q336 725 322 737T281 750Q255 750 241 738T227 701V683Q227 658 241 646T281 633Z" />
<glyph unicode="&#xe6;" horiz-adv-x="971" d="M257 -7Q166 -7 112 34T58 143V173Q58 247 106 286T245 325Q302 325 346 310T415 265V363Q415 427 381 456T270 485Q221 485 174 472T84 434L73 491Q99 508 134 520T209 540T285 547Q352 547 397 526T466 464T489
362V216Q489 101 433 47T257 -7ZM261 50Q330 50 372 79T414 156V171Q414 219 376 245T266 272Q197 272 164 246T131 166V153Q131 103 164 77T261 50ZM655 -7Q579 -7 526 19T444 95T416 218V322Q416 392 445 442T530 520T662 547Q779 547 842 485T905 309V245H477V298H844L832
277V326Q832 401 787 443T663 485Q581 485 536 443T491 322V211Q491 134 534 94T657 53Q729 53 772 81T827 163L898 159Q881 79 818 36T655 -7Z" />
<glyph unicode="&#xe7;" horiz-adv-x="608" d="M311 -7Q236 -7 181 20T97 98T67 219V321Q67 390 97 441T182 519T311 547Q417 547 483 497T558 358L484 353Q472 419 430 452T313 486Q233 486 188 442T142 321V219Q142 142 187 98T313 54Q385 54 428 88T484 187L558
182Q549 95 483 44T311 -7ZM306 -193Q263 -193 240 -171T217 -108L262 -102Q262 -124 272 -135T302 -147Q321 -147 332 -136T343 -106Q343 -89 329 -76T286 -53L301 0H345L334 -36Q362 -48 378 -69T394 -114Q394 -149 370 -171T306 -193Z" />
<glyph unicode="&#xe8;" horiz-adv-x="623" d="M306 -7Q230 -7 177 19T95 95T67 218V322Q67 392 96 442T181 520T313 547Q430 547 493 485T556 309V245H128V298H495L483 277V326Q483 401 438 443T314 485Q232 485 187 443T142 322V211Q142 134 185 94T308 53Q380
53 423 81T478 163L549 159Q532 79 469 36T306 -7ZM425 620L399 586L194 727L243 789L425 620Z" />
<glyph unicode="&#xe9;" horiz-adv-x="623" d="M306 -7Q230 -7 177 19T95 95T67 218V322Q67 392 96 442T181 520T313 547Q430 547 493 485T556 309V245H128V298H495L483 277V326Q483 401 438 443T314 485Q232 485 187 443T142 322V211Q142 134 185 94T308 53Q380
53 423 81T478 163L549 159Q532 79 469 36T306 -7ZM425 724L220 583L194 617L376 786L425 724Z" />
<glyph unicode="&#xea;" horiz-adv-x="623" d="M306 -7Q230 -7 177 19T95 95T67 218V322Q67 392 96 442T181 520T313 547Q430 547 493 485T556 309V245H128V298H495L483 277V326Q483 401 438 443T314 485Q232 485 187 443T142 322V211Q142 134 185 94T308 53Q380
53 423 81T478 163L549 159Q532 79 469 36T306 -7ZM148 615L293 773H326L471 615L441 583L293 710H328L178 583L148 615Z" />
<glyph unicode="&#xeb;" horiz-adv-x="623" d="M306 -7Q230 -7 177 19T95 95T67 218V322Q67 392 96 442T181 520T313 547Q430 547 493 485T556 309V245H128V298H495L483 277V326Q483 401 438 443T314 485Q232 485 187 443T142 322V211Q142 134 185 94T308 53Q380
53 423 81T478 163L549 159Q532 79 469 36T306 -7ZM270 728V611H205V728H270ZM413 728V611H348V728H413Z" />
<glyph unicode="&#xec;" horiz-adv-x="249" d="M162 540V0H87V540H162ZM240 620L214 586L9 727L58 789L240 620Z" />
<glyph unicode="&#xed;" horiz-adv-x="249" d="M162 540V0H87V540H162ZM240 980L35 839L9 873L191 1042L240 980Z" />
<glyph unicode="&#xee;" horiz-adv-x="249" d="M162 540V0H87V540H162ZM219 615L364 773H397L542 615L512 583L364 710H399L249 583L219 615Z" />
<glyph unicode="&#xef;" horiz-adv-x="249" d="M162 540V0H87V540H162ZM86 728V611H21V728H86ZM229 728V611H164V728H229Z" />
<glyph unicode="&#xf0;" horiz-adv-x="639" d="M310 -7Q231 -7 175 20T88 98T58 219V276Q58 346 88 396T175 474T310 502Q357 502 396 491T463 457T507 403L483 406Q478 459 469 512T447 618T416 725L485 745Q511 667 528 589T553 433T562 276V219Q562 149 532
98T446 20T310 -7ZM310 56Q392 56 440 100T488 220V275Q488 351 440 395T310 439Q229 439 181 395T132 275V220Q132 145 180 101T310 56ZM319 604L630 711V659L319 552V604Z" />
<glyph unicode="&#xf1;" horiz-adv-x="638" d="M486 324Q486 409 451 448T341 488Q255 488 209 429T162 260L127 193V258Q127 398 189 472T368 547Q466 547 513 494T560 328V0H486V324ZM87 540H136L162 360V0H87V540ZM192 660Q212 689 234 703T282 718Q305 718
323 710T358 694T393 686Q409 686 424 693T454 715L479 685Q459 656 436 641T388 626Q367 626 349 634T313 651T277 659Q261 659 246 652T216 629L192 660Z" />
<glyph unicode="&#xf2;" horiz-adv-x="639" d="M320 -7Q241 -7 185 20T98 98T67 219V321Q67 391 98 441T185 519T320 547Q398 547 455 520T542 442T572 321V219Q572 149 542 98T455 20T320 -7ZM320 56Q402 56 449 100T497 220V320Q497 396 450 440T320 484Q238
484 190 440T142 320V220Q142 145 190 101T320 56ZM434 620L408 586L203 727L252 789L434 620Z" />
<glyph unicode="&#xf3;" horiz-adv-x="639" d="M320 -7Q241 -7 185 20T98 98T67 219V321Q67 391 98 441T185 519T320 547Q398 547 455 520T542 442T572 321V219Q572 149 542 98T455 20T320 -7ZM320 56Q402 56 449 100T497 220V320Q497 396 450 440T320 484Q238
484 190 440T142 320V220Q142 145 190 101T320 56ZM434 724L229 583L203 617L385 786L434 724Z" />
<glyph unicode="&#xf4;" horiz-adv-x="639" d="M320 -7Q241 -7 185 20T98 98T67 219V321Q67 391 98 441T185 519T320 547Q398 547 455 520T542 442T572 321V219Q572 149 542 98T455 20T320 -7ZM320 56Q402 56 449 100T497 220V320Q497 396 450 440T320 484Q238
484 190 440T142 320V220Q142 145 190 101T320 56ZM157 615L302 773H335L480 615L450 583L302 710H337L187 583L157 615Z" />
<glyph unicode="&#xf5;" horiz-adv-x="639" d="M320 -7Q241 -7 185 20T98 98T67 219V321Q67 391 98 441T185 519T320 547Q398 547 455 520T542 442T572 321V219Q572 149 542 98T455 20T320 -7ZM320 56Q402 56 449 100T497 220V320Q497 396 450 440T320 484Q238
484 190 440T142 320V220Q142 145 190 101T320 56ZM175 660Q195 689 217 703T265 718Q288 718 306 710T341 694T376 686Q392 686 407 693T437 715L462 685Q442 656 419 641T371 626Q350 626 332 634T296 651T260 659Q244 659 229 652T199 629L175 660Z" />
<glyph unicode="&#xf6;" horiz-adv-x="639" d="M320 -7Q241 -7 185 20T98 98T67 219V321Q67 391 98 441T185 519T320 547Q398 547 455 520T542 442T572 321V219Q572 149 542 98T455 20T320 -7ZM320 56Q402 56 449 100T497 220V320Q497 396 450 440T320 484Q238
484 190 440T142 320V220Q142 145 190 101T320 56ZM280 728V611H215V728H280ZM423 728V611H358V728H423Z" />
<glyph unicode="&#xf7;" horiz-adv-x="588" d="M326 209V118H264V209H326ZM326 577V485H264V577H326ZM77 379H511V321H77V379Z" />
<glyph unicode="&#xf8;" horiz-adv-x="639" d="M320 -7Q241 -7 185 20T98 98T67 219V321Q67 391 98 441T185 519T320 547Q398 547 455 520T542 442T572 321V219Q572 149 542 98T455 20T320 -7ZM320 56Q402 56 449 100T497 220V320Q497 396 450 440T320 484Q238
484 190 440T142 320V220Q142 145 190 101T320 56ZM486 619L195 -78H152L442 619H486Z" />
<glyph unicode="&#xf9;" horiz-adv-x="639" d="M152 214Q152 131 185 92T289 53Q380 53 428 111T476 280L511 347V282Q511 143 452 68T280 -7Q177 -7 128 46T78 211V540H152V214ZM552 0H503L476 180V540H552V0ZM433 620L407 586L202 727L251 789L433 620Z" />
<glyph unicode="&#xfa;" horiz-adv-x="639" d="M152 214Q152 131 185 92T289 53Q380 53 428 111T476 280L511 347V282Q511 143 452 68T280 -7Q177 -7 128 46T78 211V540H152V214ZM552 0H503L476 180V540H552V0ZM433 724L228 583L202 617L384 786L433 724Z" />
<glyph unicode="&#xfb;" horiz-adv-x="639" d="M152 214Q152 131 185 92T289 53Q380 53 428 111T476 280L511 347V282Q511 143 452 68T280 -7Q177 -7 128 46T78 211V540H152V214ZM552 0H503L476 180V540H552V0ZM156 615L301 773H334L479 615L449 583L301 710H336L186
583L156 615Z" />
<glyph unicode="&#xfc;" horiz-adv-x="639" d="M152 214Q152 131 185 92T289 53Q380 53 428 111T476 280L511 347V282Q511 143 452 68T280 -7Q177 -7 128 46T78 211V540H152V214ZM552 0H503L476 180V540H552V0ZM279 728V611H214V728H279ZM422 728V611H357V728H422Z" />
<glyph unicode="&#xfd;" horiz-adv-x="514" d="M161 -177L235 16L227 -28L9 540H84L262 79H265L431 540H505L241 -191L161 -177ZM372 724L167 583L141 617L323 786L372 724Z" />
<glyph unicode="&#xfe;" horiz-adv-x="658" d="M372 -7Q298 -7 243 24T157 112T126 246V299Q126 376 156 431T242 517T372 547Q477 547 534 488T591 321V219Q591 111 534 52T372 -7ZM87 740H162V369V-180H87V740ZM365 50Q437 50 476 96T516 226V311Q516 396 477
442T365 489Q270 489 216 436T162 288V255Q162 160 216 105T365 50Z" />
<glyph unicode="&#xff;" horiz-adv-x="514" d="M161 -177L235 16L227 -28L9 540H84L262 79H265L431 540H505L241 -191L161 -177ZM218 728V611H153V728H218ZM361 728V611H296V728H361Z" />
<glyph unicode="&#x2013;" horiz-adv-x="453" d="M409 324V286H44V324H409Z" />
<glyph unicode="&#x2014;" horiz-adv-x="659" d="M615 324V286H44V324H615Z" />
<glyph unicode="&#x2018;" horiz-adv-x="153" d="M40 531V629L77 749L110 742L93 639H113V531H40Z" />
<glyph unicode="&#x2019;" horiz-adv-x="153" d="M113 749V651L77 531L44 538L61 641H40V749H113Z" />
<glyph unicode="&#x201a;" horiz-adv-x="153" d="M113 108V11L77 -109L44 -102L61 0H40V108H113Z" />
<glyph unicode="&#x201c;" horiz-adv-x="307" d="M40 531V629L77 749L110 742L93 639H113V531H40ZM193 531V629L230 749L263 742L246 639H266V531H193Z" />
<glyph unicode="&#x201d;" horiz-adv-x="307" d="M113 749V651L77 531L44 538L61 641H40V749H113ZM266 749V651L230 531L197 538L214 641H193V749H266Z" />
<glyph unicode="&#x201e;" horiz-adv-x="307" d="M113 108V11L77 -109L44 -102L61 0H40V108H113ZM266 108V11L230 -109L197 -102L214 0H193V108H266Z" />
<glyph unicode="&#x2022;" horiz-adv-x="258" d="M129 440L209 350L129 260L49 350L129 440Z" />
<glyph unicode="&#x2039;" horiz-adv-x="229" d="M188 526L218 501L79 295V345L218 139L188 114L21 309V331L188 526Z" />
<glyph unicode="&#x203a;" horiz-adv-x="229" d="M41 114L11 139L150 345V295L11 501L41 526L208 331V309L41 114Z" />
</font>
</defs>
</svg>
